<?xml version="1.0" encoding="utf-8"?>
<!-- Svg Vector Icons : http://www.onlinewebfonts.com/icon -->
<!DOCTYPE svg PUBLIC "-//W3C//DTD SVG 1.1//EN" "http://www.w3.org/Graphics/SVG/1.1/DTD/svg11.dtd">
<svg version="1.1" xmlns="http://www.w3.org/2000/svg" xmlns:xlink="http://www.w3.org/1999/xlink" x="0px" y="0px" viewBox="0 0 1000 1000" enable-background="new 0 0 1000 1000" xml:space="preserve">
<metadata> Svg Vector Icons : http://www.onlinewebfonts.com/icon </metadata>
<g><g transform="translate(0.000000,512.000000) scale(0.100000,-0.100000)"><path d="M4224.8,5002.4c-574.2-78.5-1098.7-338.8-1512.1-754.1c-390.5-388.6-652.7-890-729.3-1397.3c-47.9-300.5-38.3-285.2-170.4-300.5c-262.2-32.5-622.1-179.9-869-354.1C368,1784.9,38.7,1065.2,113.4,385.7c90-792.4,645-1464.2,1412.6-1703.5c237.3-74.6,407.7-90,968.5-90h514.9v153.1v153.1h-534c-390.5,0-578,7.6-700.5,28.7C1091.5-952.2,555.5-416.3,435,267.1c-185.7,1068,585.7,2000.2,1655.7,2000.2H2238l11.5,245c5.7,134,23,306.2,40.2,382.8c197.2,911.1,865.2,1579.1,1776.3,1776.3c312,67,761.8,55.5,1092.9-28.7c572.3-147.4,1079.5-528.3,1366.6-1025.9l68.9-120.6l269.9-9.6c426.8-15.3,654.6-97.6,874.7-317.7c208.6-208.6,300.5-447.9,317.7-826.9l11.5-222l212.5-11.5c669.9-32.5,1161.8-488.1,1284.3-1190.5C9710.5,85.2,9287.5-695.7,8533.3-988.6c-241.2-93.8-415.3-112.9-1008.7-112.9h-534v-153.1v-153.1h514.9c560.8,0,733.1,15.3,968.5,90c752.2,235.4,1305.4,888.1,1408.7,1663.3c76.6,583.8-156.9,1253.7-576.1,1640.3c-227.8,210.5-566.6,379-828.8,407.7c-91.9,11.5-111,19.1-116.8,53.6c-65.1,344.5-111,482.3-223.9,675.7c-91.9,153.1-308.2,367.5-467,461.3c-222,130.2-535.9,212.5-809.6,214.4c-90,1.9-90,1.9-176.1,128.2c-346.4,514.9-953.2,905.4-1613.6,1041.3C4846.9,5013.9,4431.5,5031.2,4224.8,5002.4z"/><path d="M4691.8,2389.8c-373.2-67-691-237.3-976.2-522.5c-290.9-290.9-457.5-604.8-524.5-991.5c-97.6-557,84.2-1123.5,495.7-1552.3c223.9-233.5,482.3-392.4,821.1-507.2c30.6-11.5,32.5-114.8,32.5-1803v-1789.6h153.1h153.1v1760.9v1760.9H5000h153.1v-1760.9v-1760.9h153.1h153.1v1789.6c0,1688.2,1.9,1791.6,34.5,1803c354.1,122.5,541.7,237.3,788.6,484.3c271.8,271.8,421.1,534,511.1,891.9c47.9,195.2,44,620.2-9.6,813.5c-93.8,350.3-266.1,643.1-524.5,890C5828.8,2309.4,5250.7,2491.2,4691.8,2389.8z M4846.9,1405.9V736h-308.2h-308.2l13.4,130.2c36.4,363.7,139.7,710.1,275.6,914.9c95.7,145.5,250.7,290.9,313.9,294.8C4841.1,2075.8,4846.9,1775.3,4846.9,1405.9z M5227.8,2047.1c168.4-86.1,363.7-407.7,449.8-736.9c38.3-151.2,88-459.4,88-549.3c0-19.1-74.7-24.9-306.3-24.9h-306.3v669.9c0,369.4,3.8,669.9,9.6,669.9C5170.4,2075.8,5199.1,2062.4,5227.8,2047.1z M4238.2,1851.9c-128.2-216.3-231.6-535.9-271.8-832.6c-11.5-88-26.8-187.6-30.6-220.1l-9.6-63.2h-227.8h-227.8l9.6,63.2c70.8,396.2,227.8,694.8,495.7,936c80.4,72.7,275.6,206.7,300.5,206.7C4284.1,1941.9,4266.9,1901.7,4238.2,1851.9z M5989.6,1763.9c266-225.9,463.2-560.8,513-876.6c5.7-45.9,17.2-99.5,21-116.8c9.6-30.6-9.6-34.4-220.1-34.4h-229.7l-9.6,63.2c-65.1,482.3-120.6,692.9-252.6,958.9c-45.9,93.8-84.2,174.2-84.2,178C5727.3,1953.3,5891.9,1844.2,5989.6,1763.9z M3935.8,368.5c65.1-480.4,128.2-715.9,260.3-980c42.1-82.3,74.6-153.1,70.8-157c-9.6-11.5-208.6,126.3-290.9,199.1C3727.1-345.4,3545.3-20,3497.5,278.5c-5.7,45.9-17.2,99.5-21.1,118.7c-9.6,28.7,9.6,32.5,220.1,32.5h229.7L3935.8,368.5z M4846.9-240.2c0-367.5-3.8-669.9-9.6-669.9c-65.1,0-239.3,164.6-333,315.8C4381.8-399,4278.4-44.9,4243.9,301.5l-13.4,128.2h308.2h308.2V-240.2z M5756.1,301.5c-34.5-346.4-137.8-700.5-260.3-895.8c-93.8-151.2-268-315.8-333.1-315.8c-5.7,0-9.6,302.4-9.6,669.9v669.9h308.2h308.2L5756.1,301.5z M6519.8,368.5c-63.2-365.6-202.9-646.9-430.7-874.7c-95.7-93.8-342.6-277.5-356-262.2c-3.8,3.8,28.7,74.7,70.8,158.9c134,268,195.2,499.6,260.3,978.1l9.6,61.3h227.8h229.7L6519.8,368.5z"/><path d="M1937.5,1195.4v-153.1h153.1h153.1v153.1v153.1h-153.1h-153.1V1195.4z"/><path d="M2550,1195.4v-153.1h153.1h153.1v153.1v153.1h-153.1H2550V1195.4z"/><path d="M7143.7,1195.4v-153.1h153.1H7450v153.1v153.1h-153.1h-153.1V1195.4z"/><path d="M7756.2,1195.4v-153.1h153.1h153.1v153.1v153.1h-153.1h-153.1V1195.4z"/><path d="M1325,582.9V429.8h153.1h153.1v153.1V736h-153.1H1325V582.9z"/><path d="M1937.5,582.9V429.8h153.1h153.1v153.1V736h-153.1h-153.1V582.9z"/><path d="M2550,582.9V429.8h153.1h153.1v153.1V736h-153.1H2550V582.9z"/><path d="M7143.7,582.9V429.8h153.1H7450v153.1V736h-153.1h-153.1V582.9z"/><path d="M7756.2,582.9V429.8h153.1h153.1v153.1V736h-153.1h-153.1V582.9z"/><path d="M8368.7,582.9V429.8h153.1H8675v153.1V736h-153.1h-153.1V582.9z"/><path d="M1937.5-29.6v-153.1h153.1h153.1v153.1v153.1h-153.1h-153.1V-29.6z"/><path d="M2550-29.6v-153.1h153.1h153.1v153.1v153.1h-153.1H2550V-29.6z"/><path d="M7143.7-29.6v-153.1h153.1H7450v153.1v153.1h-153.1h-153.1V-29.6z"/><path d="M7756.2-29.6v-153.1h153.1h153.1v153.1v153.1h-153.1h-153.1V-29.6z"/><path d="M3315.6-1254.6v-153.1h153.1h153.1v153.1v153.1h-153.1h-153.1V-1254.6z"/><path d="M6378.1-1254.6v-153.1h153.1h153.1v153.1v153.1h-153.1h-153.1V-1254.6z"/><path d="M3315.6-1867.1v-153.1h153.1h153.1v153.1v153.1h-153.1h-153.1V-1867.1z"/><path d="M3928.1-2785.9v-1071.9H3775h-153.1v459.4v459.4h-153.1h-153.1v-459.4v-459.4H1707.8H100v-153.1V-4164h2067.2h2067.2v1225v1225h-153.1h-153.1V-2785.9z"/><path d="M5765.6-2939v-1225h2067.2H9900v153.1v153.1H8292.2H6684.4v459.4v459.4h-153.1h-153.1v-459.4v-459.4H6225h-153.1v1071.9V-1714h-153.1h-153.1V-2939z"/><path d="M6378.1-1867.1v-153.1h153.1h153.1v153.1v153.1h-153.1h-153.1V-1867.1z"/><path d="M3315.6-2479.6v-153.1h153.1h153.1v153.1v153.1h-153.1h-153.1V-2479.6z"/><path d="M6378.1-2479.6v-153.1h153.1h153.1v153.1v153.1h-153.1h-153.1V-2479.6z"/></g></g>
</svg>